<?xml version="1.0" encoding="UTF-8"?>
<svg width="32" height="32" viewBox="0 0 32 32" fill="none" xmlns="http://www.w3.org/2000/svg">
  <!-- Background circle -->
  <circle cx="16" cy="16" r="15" fill="#1E293B"/>
  
  <!-- Cloud shape -->
  <path d="M12 20C10.3431 20 9 18.6569 9 17C9 15.3431 10.3431 14 12 14C12.8355 14 13.5978 14.2777 14.1927 14.7299C14.0439 13.7763 14 12.7966 14 11.8C14 8.46243 16.6863 5.8 20 5.8C23.3137 5.8 26 8.46243 26 11.8C26 12.7966 25.9561 13.7763 25.8073 14.7299C26.4022 14.2777 27.1645 14 28 14C29.6569 14 31 15.3431 31 17C31 18.6569 29.6569 20 28 20H12Z" fill="#60A5FA"/>
  
  <!-- Bitcoin symbol -->
  <path d="M16 8L18 10L16 12L14 10L16 8Z" fill="#F59E0B"/>
  <path d="M16 12L18 14L16 16L14 14L16 12Z" fill="#F59E0B"/>
  <path d="M16 16L18 18L16 20L14 18L16 16Z" fill="#F59E0B"/>
</svg> 